<svg id="b19b5d28-2982-4465-9d47-4435d5c2a86b" data-name="Layer 1" xmlns="http://www.w3.org/2000/svg" viewBox="0 0 512 512"><defs><style>.\31 cd8b46b-99ab-4c35-8229-5c7ea3f4289d{fill:#fbda54;}.d8a26e2f-e33f-48a0-8dd6-2566e1223f1a{fill:#f9cf1e;}.\31 0e1911f-9ddd-44cc-bb7f-1604f4e1ef3c{fill:#eaa22f;}.\39 f0d5946-4142-4ed1-82b0-8b78da4dca10{fill:#e09112;}.\38 9dad1b6-9dad-47f1-90e1-311a6a5301e9{fill:#d35933;}.a11e68b8-cc2e-4e84-b6f7-1662f01b0d88{fill:#b54324;}.\37 81e6c4b-287d-44d6-8226-f3b4af61f0be{fill:#ff314f;}.e46a5355-ee53-450f-ae01-31228d3f1f77{fill:#a30f44;}</style></defs><title>help</title><circle class="1cd8b46b-99ab-4c35-8229-5c7ea3f4289d" cx="256" cy="256" r="256"/><path class="d8a26e2f-e33f-48a0-8dd6-2566e1223f1a" d="M411.45,459.39l-183.12-184-3.16,5.39L203,259.15l.09,42.35-25.27-26.17-2.7,98.9-18.73-19.61-1.15,88.74L183,468.9l29.29,39.37A257.65,257.65,0,0,0,256,512,254.86,254.86,0,0,0,411.45,459.39Z"/><path class="d8a26e2f-e33f-48a0-8dd6-2566e1223f1a" d="M231.42,261.11,421.56,451.24A256.1,256.1,0,0,0,484.77,141L371,27.23h0L283.71,148v74.31l-5.35,4-29.92-29.92Z"/><path class="10e1911f-9ddd-44cc-bb7f-1604f4e1ef3c" d="M304.08,4.53V96.38L298.45,102a54.94,54.94,0,0,0-16.09,38.84v96.71a10.86,10.86,0,1,0,21.72,0V207.95h2.82V281a10.86,10.86,0,0,0,21.72,0V207.95h3.52v89.19a10.86,10.86,0,0,0,21.72,0V207.95h3.52V281a10.86,10.86,0,0,0,21.72,0V218.59A15.48,15.48,0,0,1,371,205V183.26a7.69,7.69,0,0,0-7.68-7.68h-5.92a29.87,29.87,0,0,1-29.84-29.84V127.54h9.21v18.21a20.65,20.65,0,0,0,20.63,20.62h5.92a16.91,16.91,0,0,1,16.89,16.89V205a6.25,6.25,0,1,0,12.51,0V140.85A50,50,0,0,0,378,105.27l-7-7V27.23A254.18,254.18,0,0,0,304.08,4.53Z"/><path class="9f0d5946-4142-4ed1-82b0-8b78da4dca10" d="M343,308a10.89,10.89,0,0,0,10.86-10.86V207.94h3.52V281a10.86,10.86,0,0,0,21.72,0V218.59A15.48,15.48,0,0,1,371,205V183.26a7.69,7.69,0,0,0-7.68-7.68h-5.92a29.63,29.63,0,0,1-14.6-3.84V308Z"/><path class="9f0d5946-4142-4ed1-82b0-8b78da4dca10" d="M378,105.27l-7-7V27.23a253.9,253.9,0,0,0-28.2-12.09V160.29a20.56,20.56,0,0,0,14.6,6.07h5.92a16.91,16.91,0,0,1,16.89,16.89V205a6.25,6.25,0,1,0,12.51,0V140.85A50,50,0,0,0,378,105.27Z"/><path class="89dad1b6-9dad-47f1-90e1-311a6a5301e9" d="M256,326.43a10.86,10.86,0,0,0-21.72,0V356h-2.82V283a10.86,10.86,0,1,0-21.72,0V356h-3.52V266.86a10.86,10.86,0,1,0-21.72,0V356H181V283a10.86,10.86,0,1,0-21.72,0V345.4A15.48,15.48,0,0,1,167.39,359v21.72a7.69,7.69,0,0,0,7.68,7.68H181a29.87,29.87,0,0,1,29.84,29.84v18.21h-9.21V418.24A20.65,20.65,0,0,0,181,397.62h-5.92a16.91,16.91,0,0,1-16.89-16.89V359a6.25,6.25,0,0,0-12.51,0v64.13a50,50,0,0,0,14.74,35.58l7,7v30.54a254.69,254.69,0,0,0,66.89,14.83V467.61l5.63-5.63A54.92,54.92,0,0,0,256,423.14V326.43Z"/><path class="a11e68b8-cc2e-4e84-b6f7-1662f01b0d88" d="M245.14,315.57a10.86,10.86,0,0,0-10.86,10.86V356h-2.82V283a10.86,10.86,0,0,0-21.72,0V356h-3.52V266.86A10.89,10.89,0,0,0,195.36,256c-.29,0-.57,0-.85,0V391.68a29.85,29.85,0,0,1,16.32,26.56v18.21h-9.21V418.25a20.57,20.57,0,0,0-7.1-15.54V504.52a255.73,255.73,0,0,0,39.76,6.55V467.61l5.63-5.63A54.94,54.94,0,0,0,256,423.14V326.43A10.86,10.86,0,0,0,245.14,315.57Z"/><path class="781e6c4b-287d-44d6-8226-f3b4af61f0be" d="M253.8,282.82a3.7,3.7,0,0,0,6.12,0c11.7-17.27,53-38.71,53-66.47,0-19.15-12.54-28-28-28a28,28,0,0,0-28,28,28,28,0,0,0-28-28c-15.47,0-28,8.87-28,28C200.84,244.11,242.1,265.56,253.8,282.82Z"/><path class="e46a5355-ee53-450f-ae01-31228d3f1f77" d="M284.88,188.34a28,28,0,0,0-28,28c0-.07,0-.13,0-.2v68.3a3.67,3.67,0,0,0,3.07-1.62c11.7-17.27,53-38.71,53-66.47C312.89,197.2,300.35,188.34,284.88,188.34Z"/></svg>