<?xml version="1.0" encoding="UTF-8" standalone="no"?>
<svg width="512px" height="512px" viewBox="0 0 512 512" version="1.1" xmlns="http://www.w3.org/2000/svg" xmlns:xlink="http://www.w3.org/1999/xlink">
    <!-- Generator: Sketch 43.2 (39069) - http://www.bohemiancoding.com/sketch -->
    <title>001-balloons</title>
    <desc>Created with Sketch.</desc>
    <defs></defs>
    <g id="Page-1" stroke="none" stroke-width="1" fill="none" fill-rule="evenodd">
        <g id="001-balloons" fill-rule="nonzero">
            <circle id="Oval" fill="#FBDA54" cx="256" cy="256" r="256"></circle>
            <path d="M300.408,508.152 C408.747,489.203 493.644,402.142 509.366,292.728 L389.239,171.292 L334.726,190.491 L282.599,196.525 L137.756,255.446 L214.308,331.165 L214.163,421.243 L300.408,508.152 Z" id="Shape" fill="#E4B702"></path>
            <path d="M213.28,421.243 C211.377,421.243 209.832,419.698 209.832,417.795 L209.832,288.034 C209.832,286.131 211.377,284.586 213.28,284.586 C215.183,284.586 216.728,286.131 216.728,288.034 L216.728,417.796 C216.728,419.7 215.183,421.243 213.28,421.243 Z" id="Shape" fill="#FF7F4F"></path>
            <path d="M213.28,284.586 C213.249,284.586 213.221,284.595 213.19,284.595 L213.19,421.235 C213.221,421.235 213.249,421.244 213.28,421.244 C215.183,421.244 216.728,419.699 216.728,417.796 L216.728,288.034 C216.728,286.13 215.183,284.586 213.28,284.586 Z" id="Shape" fill="#D35933"></path>
            <path d="M227.733,303.944 L198.825,303.944 C196.127,303.944 194.372,301.105 195.579,298.691 L205.5,278.847 C206.115,277.618 207.372,276.84 208.746,276.84 L217.81,276.84 C219.186,276.84 220.442,277.617 221.056,278.847 L230.977,298.691 C232.186,301.104 230.431,303.944 227.733,303.944 Z" id="Shape" fill="#FEE187"></path>
            <path d="M230.979,298.691 L221.058,278.849 C220.443,277.62 219.186,276.842 217.812,276.842 L213.192,276.842 L213.192,303.945 L227.735,303.945 C230.431,303.944 232.186,301.104 230.979,298.691 Z" id="Shape" fill="#FFC61B"></path>
            <path d="M324.33,421.243 C322.427,421.243 320.882,419.698 320.882,417.795 L320.882,311.424 C320.882,309.521 322.427,307.976 324.33,307.976 C326.233,307.976 327.778,309.521 327.778,311.424 L327.778,417.796 C327.778,419.7 326.234,421.243 324.33,421.243 Z" id="Shape" fill="#FF7F4F"></path>
            <path d="M324.33,307.976 C324.249,307.976 324.173,307.993 324.096,308 L324.096,421.221 C324.175,421.226 324.251,421.245 324.33,421.245 C326.233,421.245 327.778,419.7 327.778,417.797 L327.778,311.424 C327.778,309.52 326.234,307.976 324.33,307.976 Z" id="Shape" fill="#D35933"></path>
            <path d="M336.179,324.467 L312.482,324.467 C310.27,324.467 308.831,322.14 309.82,320.161 L317.953,303.894 C318.456,302.886 319.487,302.249 320.615,302.249 L328.045,302.249 C329.172,302.249 330.202,302.885 330.707,303.894 L338.84,320.161 C339.828,322.139 338.391,324.467 336.179,324.467 Z" id="Shape" fill="#FFAD9E"></path>
            <g id="Group" transform="translate(239.000000, 141.000000)" fill="#FF6262">
                <path d="M99.839,179.16 L91.706,162.893 C91.203,161.885 90.172,161.248 89.044,161.248 L85.095,161.248 L85.095,183.466 L97.178,183.466 C99.389,183.467 100.828,181.139 99.839,179.16 Z" id="Shape"></path>
                <circle id="Oval" cx="85.336" cy="85.332" r="85.092"></circle>
            </g>
            <path d="M324.329,141.228 C324.25,141.228 324.172,141.233 324.095,141.233 L324.095,311.417 C324.174,311.417 324.252,311.422 324.329,311.422 C371.328,311.422 409.428,273.322 409.428,226.323 C409.428,179.324 371.328,141.228 324.329,141.228 Z" id="Shape" fill="#FF314F"></path>
            <path d="M322.251,261.073 C323.246,262.54 325.413,262.54 326.407,261.073 C334.352,249.35 362.364,234.794 362.364,215.945 C362.364,202.947 353.85,196.927 343.346,196.927 C332.842,196.927 324.328,205.441 324.328,215.945 C324.328,205.441 315.814,196.927 305.31,196.927 C294.806,196.927 286.292,202.947 286.292,215.945 C286.292,234.792 314.306,249.349 322.251,261.073 Z" id="Shape" fill="#FFFFFF"></path>
            <path d="M324.094,262.146 C324.959,262.227 325.859,261.879 326.407,261.072 C334.352,249.349 362.364,234.791 362.364,215.944 C362.364,202.944 353.85,196.926 343.346,196.926 C332.842,196.926 324.328,205.44 324.328,215.944 L324.094,262.146 Z" id="Shape" fill="#D0D1D3"></path>
            <circle id="Oval" fill="#FFC61B" cx="213.282" cy="184.217" r="103.814"></circle>
            <path d="M213.278,80.412 C213.249,80.412 213.219,80.414 213.19,80.414 L213.19,288.03 C213.219,288.03 213.249,288.032 213.278,288.032 C270.612,288.032 317.09,241.554 317.09,184.222 C317.09,126.89 270.612,80.412 213.278,80.412 Z" id="Shape" fill="#EAA22F"></path>
            <path d="M210.744,226.609 C211.958,228.4 214.6,228.4 215.814,226.609 C225.507,212.309 259.679,194.55 259.679,171.556 C259.679,155.698 249.292,148.356 236.479,148.356 C223.665,148.356 213.279,158.743 213.279,171.556 C213.279,158.742 202.892,148.356 190.079,148.356 C177.265,148.356 166.879,155.698 166.879,171.556 C166.879,194.551 201.051,212.309 210.744,226.609 Z" id="Shape" fill="#FF314F"></path>
            <path d="M213.19,227.942 C214.183,227.97 215.188,227.532 215.814,226.609 C225.507,212.309 259.679,194.55 259.679,171.556 C259.679,155.698 249.292,148.356 236.479,148.356 C223.665,148.356 213.279,158.743 213.279,171.556 L213.19,227.942 Z" id="Shape" fill="#A30F44"></path>
        </g>
    </g>
</svg>