<?xml version="1.0" encoding="utf-8"?>
<!-- Generator: Adobe Illustrator 21.0.0, SVG Export Plug-In . SVG Version: 6.00 Build 0)  -->
<svg version="1.1" id="Layer_1" xmlns="http://www.w3.org/2000/svg" xmlns:xlink="http://www.w3.org/1999/xlink" x="0px" y="0px"
	 viewBox="0 0 512 512" style="enable-background:new 0 0 512 512;" xml:space="preserve">
<style type="text/css">
	.st0{fill:#FBDA54;}
	.st1{fill:#F9CF1E;}
	.st2{fill:#B54324;}
	.st3{fill:#FFAD9E;}
	.st4{fill:#FF6262;}
	.st5{fill:#FFC61B;}
	.st6{fill:#EAA22F;}
	.st7{fill:#E09112;}
	.st8{fill:#FF5419;}
	.st9{fill:#D35933;}
</style>
<circle class="st0" cx="256" cy="256" r="256"/>
<g>
	<path class="st1" d="M420.6,156.1l91.2,91.2c-0.6-17.4-2.9-34.4-6.8-50.7l-59.5-59.8l-3.1,2.2l-12-11.5L420.6,156.1z"/>
	<path class="st1" d="M472.1,393.2l-190.9-191l-33.4,34.1L82.4,327l64.3,61.5L130.6,400l112.1,111.7c4.4,0.2,8.8,0.3,13.2,0.3
		C346.9,512,426.7,464.6,472.1,393.2z"/>
	<path class="st1" d="M335.1,250.1l139.6,139.1c18.9-31,31.4-66.4,35.7-104.2L347.7,122.3l-19.6,9.7l-5-5.1l-9.5,25.4l55.5,55.5
		l-2.4,2.8l-17.5-18L335.1,250.1z"/>
</g>
<path class="st2" d="M153.3,403.3h-14c-6.1,0-11.4-4.2-12.7-10.2l-16-69.9h40.8l14.7,64.1C168,395.5,161.7,403.3,153.3,403.3z"/>
<path class="st3" d="M334.4,249c0.5,1.7,2.5,2.4,3.8,1.3c11.1-8.3,41.6-12.8,47.6-30.2c4.1-12-1.8-20.3-11.5-23.6
	c-9.7-3.4-20.3,1.8-23.6,11.5c3.4-9.7-1.8-20.3-11.5-23.6c-9.7-3.4-19.5-0.5-23.6,11.5C309.6,213.2,330.8,235.6,334.4,249z"/>
<path class="st4" d="M374.4,196.4c-9.7-3.4-20.3,1.8-23.6,11.5c0,0,0-0.1,0-0.1L336,250.7c0.7,0.3,1.6,0.2,2.3-0.4
	c11.1-8.3,41.6-12.8,47.6-30.2C390.1,208.1,384.1,199.8,374.4,196.4z"/>
<path class="st3" d="M329.8,163.6c0.8,0.9,2.2,0.6,2.7-0.4c4-8.4,20.9-20.7,19-33c-1.3-8.5-7.4-11.6-14.3-10.5s-11.6,7.4-10.5,14.3
	c-1-6.9-7.4-11.6-14.3-10.5c-6.9,1-11.8,5.8-10.5,14.3C303.8,150,323.5,156.7,329.8,163.6z"/>
<path class="st4" d="M337.2,119.6c-6.9,1-11.6,7.4-10.5,14.3c0,0,0-0.1,0-0.1l4.6,30.2c0.5-0.1,1-0.4,1.3-0.9c4-8.4,20.9-20.7,19-33
	C350.2,121.7,344.1,118.6,337.2,119.6z"/>
<path class="st3" d="M420.1,155.2c0,0.8,0.9,1.3,1.6,1c5.9-2.7,20.3-1.7,24.7-9.1c3.1-5.1,1.2-9.4-2.9-11.9
	c-4.1-2.5-9.4-1.2-11.9,2.9c2.5-4.1,1.2-9.4-2.9-11.9c-4.1-2.5-8.9-2.2-11.9,2.9C412.3,136.4,419.7,148.8,420.1,155.2z"/>
<path class="st4" d="M443.5,135.2c-4.1-2.5-9.4-1.2-11.9,2.9c0,0,0,0,0-0.1l-11,18.1c0.3,0.2,0.7,0.2,1.1,0.1
	c5.9-2.7,20.3-1.7,24.7-9.1C449.5,142,447.6,137.7,443.5,135.2z"/>
<path class="st5" d="M259.9,367.7L80.3,316.4V263l179.6-51.3c3.6-1,7.2,1.7,7.2,5.4v145.2C267.1,366,263.5,368.7,259.9,367.7z"/>
<path class="st6" d="M80.3,287.6v28.8l179.6,51.3c3.6,1,7.2-1.7,7.2-5.4v-74.7L80.3,287.6L80.3,287.6z"/>
<polygon class="st7" points="187,346.9 240.4,362.1 240.4,217.2 187,232.5 "/>
<polygon class="st8" points="187,287.6 187,346.9 240.4,362.1 240.4,287.6 "/>
<g>
	<path class="st9" d="M96.2,328.9H87c-3.7,0-6.7-3-6.7-6.7v-66.6c0-3.7,3-6.7,6.7-6.7h9.2c3.7,0,6.7,3,6.7,6.7v66.6
		C102.9,325.9,99.9,328.9,96.2,328.9z"/>
	<path class="st9" d="M273.5,378.6h-4.9c-6,0-10.9-4.9-10.9-10.9V210c0-6,4.9-10.9,10.9-10.9h4.9c6,0,10.9,4.9,10.9,10.9v157.7
		C284.4,373.7,279.6,378.6,273.5,378.6z"/>
</g>
<g>
	<path class="st2" d="M80.3,287.6v34.6c0,3.7,3,6.7,6.7,6.7h9.2c3.7,0,6.7-3,6.7-6.7v-34.6H80.3z"/>
	<path class="st2" d="M257.8,287.6v80.1c0,6,4.9,10.9,10.9,10.9h4.9c6,0,10.9-4.9,10.9-10.9v-80.1H257.8L257.8,287.6z"/>
</g>
</svg>
