<?xml version="1.0" encoding="utf-8"?><svg width="104" height="104" viewBox="0 0 104 104" xmlns="http://www.w3.org/2000/svg" xmlns:xlink="http://www.w3.org/1999/xlink"><svg viewBox="-1 -1 52 52" width="52" height="52" id="svg--facebook" xmlns="http://www.w3.org/2000/svg"><title>facebook</title><path d="M47.3 0H2.8A2.8 2.8 0 0 0 0 2.7v44.5A2.8 2.8 0 0 0 2.8 50h23.9V30.6h-6.5v-7.5h6.5v-5.6c0-6.5 3.9-10 9.7-10a54 54 0 0 1 5.8.3v6.7h-4c-3.1 0-3.7 1.5-3.7 3.7V23H42l-1 7.5h-6.5V50h12.8a2.8 2.8 0 0 0 2.8-2.8V2.7A2.8 2.8 0 0 0 47.3 0z"/></svg><svg data-name="Layer 1" viewBox="-1 -1 51.6 51.6" width="51.6" height="51.6" id="svg--linkedin" y="52" xmlns="http://www.w3.org/2000/svg"><title>linkedin</title><path data-name="LinkedIn (alt)" d="M46 0H3.7A3.6 3.6 0 0 0 0 3.6v42.5a3.6 3.6 0 0 0 3.7 3.6H46a3.6 3.6 0 0 0 3.7-3.6V3.6A3.6 3.6 0 0 0 46 0zM15 41.6H7.5V19.2H15zm-3.7-25.5h-.1a3.9 3.9 0 0 1-4.1-3.9c0-2.2 1.7-3.9 4.2-3.9a3.9 3.9 0 1 1 0 7.7zm30.8 25.5h-7.5v-12c0-3-1.1-5.1-3.8-5.1a4.1 4.1 0 0 0-3.9 2.7 5 5 0 0 0-.2 1.8v12.6h-7.5s.1-20.3 0-22.4h7.5v3.2a7.4 7.4 0 0 1 6.8-3.7c4.9 0 8.6 3.2 8.6 10.1v12.8zM26.6 22.4z"/></svg><svg viewBox="-1 -1 51.9 42.5" width="51.9" height="42.5" id="svg--twitter" x="52" xmlns="http://www.w3.org/2000/svg"><title>twitter</title><path d="M49.9 4.7A20.4 20.4 0 0 1 44 6.3 10.3 10.3 0 0 0 48.5.6a20.6 20.6 0 0 1-6.4 2.6 10.2 10.2 0 0 0-17.4 9.3A29.1 29.1 0 0 1 3.5 1.8a10.2 10.2 0 0 0 3.2 13.7A10.2 10.2 0 0 1 2 14.2a10.2 10.2 0 0 0 8.2 10 10.4 10.4 0 0 1-2.7.4l-1.9-.2a10.2 10.2 0 0 0 9.6 7.1A20.5 20.5 0 0 1 2.5 36H0a28.9 28.9 0 0 0 15.7 4.6c18.8 0 29.1-15.6 29.1-29.1V10a20.4 20.4 0 0 0 5.1-5.3z"/></svg></svg>