<svg id="Layer_1" data-name="Layer 1" xmlns="http://www.w3.org/2000/svg" viewBox="0 0 49.6 49.6"><title>linkedin</title><path id="LinkedIn_alt_" data-name="LinkedIn (alt)" d="M46.1.1H3.8A3.6,3.6,0,0,0,.1,3.7V46.2a3.6,3.6,0,0,0,3.7,3.6H46.1a3.6,3.6,0,0,0,3.7-3.6V3.7A3.6,3.6,0,0,0,46.1.1ZM15.1,41.7H7.6V19.3h7.5ZM11.4,16.2h-.1a3.9,3.9,0,0,1-4.1-3.9c0-2.2,1.7-3.9,4.2-3.9a3.9,3.9,0,1,1,0,7.7ZM42.2,41.7H34.7v-12c0-3-1.1-5.1-3.8-5.1A4.1,4.1,0,0,0,27,27.3a5,5,0,0,0-.2,1.8V41.7H19.3s.1-20.3,0-22.4h7.5v3.2a7.4,7.4,0,0,1,6.8-3.7c4.9,0,8.6,3.2,8.6,10.1V41.7ZM26.7,22.5h0Z" transform="translate(-0.1 -0.1)"/></svg>